<svg width="158" height="68" viewBox="0 0 158 68" fill="none" xmlns="http://www.w3.org/2000/svg">
<path d="M4.53609 46.236C5.19208 46.236 5.71284 46.4457 6.09833 46.8652C6.48381 47.2847 6.67656 47.8483 6.67656 48.5562C6.67656 49.5612 6.26402 50.2429 5.43894 50.6012V50.6274H5.44909C5.91573 50.6973 6.2894 50.9486 6.57004 51.3811C6.85069 51.8137 6.99103 52.3315 6.99103 52.9345C6.99103 53.7123 6.75941 54.3372 6.29614 54.8091C5.83288 55.281 5.23606 55.517 4.50566 55.517H2V46.236H4.53609V46.236ZM4.33321 50.0899C4.73898 50.0899 5.05853 49.9698 5.29185 49.7294C5.52517 49.4891 5.64183 49.1461 5.64183 48.7004C5.64183 48.2809 5.54039 47.9488 5.3375 47.7041C5.13461 47.4595 4.86748 47.3371 4.53609 47.3371H2.97386V50.0899H4.33321V50.0899ZM4.44479 54.4158C4.92496 54.4158 5.29692 54.2716 5.56068 53.9832C5.82443 53.6948 5.95631 53.3147 5.95631 52.8428C5.95631 52.3184 5.82274 51.9121 5.5556 51.6237C5.28847 51.3353 4.91144 51.1911 4.42451 51.1911H2.97386V54.4158H4.44479V54.4158ZM18.8782 46.236L21.952 55.517H20.8158L20.0955 53.2229H16.6769L15.9668 55.517H14.8306L17.9957 46.236H18.8782ZM17.0218 52.1218H19.7405L18.4014 47.8614H18.3811L17.0218 52.1218ZM32.8146 46.236C33.5179 46.236 34.0691 46.4632 34.4681 46.9176C34.8671 47.3721 35.0666 48.01 35.0666 48.8315C35.0666 49.452 34.9026 49.9938 34.5746 50.457C34.2466 50.9202 33.8256 51.1955 33.3116 51.2828H33.3015L35.3405 55.517H34.1232L32.2972 51.427H31.2117V55.517H30.2379V46.236H32.8146V46.236ZM32.5305 50.3259C33.0377 50.3259 33.4147 50.2057 33.6616 49.9654C33.9085 49.7251 34.0319 49.3471 34.0319 48.8315C34.0319 47.8352 33.5314 47.3371 32.5305 47.3371H31.2117V50.3259H32.5305V50.3259ZM46.3248 46.236C46.9808 46.236 47.5016 46.4457 47.8871 46.8652C48.2726 47.2847 48.4653 47.8483 48.4653 48.5562C48.4653 49.5612 48.0528 50.2429 47.2277 50.6012V50.6274H47.2378C47.7045 50.6973 48.0781 50.9486 48.3588 51.3811C48.6394 51.8137 48.7798 52.3315 48.7798 52.9345C48.7798 53.7123 48.5481 54.3372 48.0849 54.8091C47.6216 55.281 47.0248 55.517 46.2944 55.517H43.7887V46.236H46.3248V46.236ZM46.1219 50.0899C46.5277 50.0899 46.8473 49.9698 47.0806 49.7294C47.3139 49.4891 47.4306 49.1461 47.4306 48.7004C47.4306 48.2809 47.3291 47.9488 47.1262 47.7041C46.9234 47.4595 46.6562 47.3371 46.3248 47.3371H44.7626V50.0899H46.1219V50.0899ZM46.2335 54.4158C46.7137 54.4158 47.0857 54.2716 47.3494 53.9832C47.6132 53.6948 47.745 53.3147 47.745 52.8428C47.745 52.3184 47.6115 51.9121 47.3443 51.6237C47.0772 51.3353 46.7002 51.1911 46.2132 51.1911H44.7626V54.4158H46.2335ZM62.1683 46.236V47.4157H58.5062V50.1817H61.9147V51.3615H58.5062V54.3372H62.3509V55.517H57.5323V46.236H62.1683ZM73.6599 46.236C74.3632 46.236 74.9144 46.4632 75.3134 46.9176C75.7124 47.3721 75.9119 48.01 75.9119 48.8315C75.9119 49.452 75.7479 49.9938 75.4199 50.457C75.0919 50.9202 74.6709 51.1955 74.1569 51.2828H74.1468L76.1858 55.517H74.9685L73.1425 51.427H72.0571V55.517H71.0832V46.236H73.6599V46.236ZM73.3758 50.3259C73.883 50.3259 74.2601 50.2057 74.5069 49.9654C74.7538 49.7251 74.8772 49.3471 74.8772 48.8315C74.8772 47.8352 74.3767 47.3371 73.3758 47.3371H72.0571V50.3259H73.3758V50.3259ZM86.6934 46C87.6266 46 88.3165 46.354 88.7628 47.0619L87.9715 47.9926C87.8498 47.7479 87.6774 47.5513 87.4542 47.4027C87.231 47.2541 86.974 47.1799 86.6832 47.1799C86.2639 47.1799 85.9275 47.3131 85.6738 47.5797C85.4202 47.8462 85.2934 48.1892 85.2934 48.6087C85.2934 49.3079 85.6519 49.7972 86.3687 50.0769L87.2716 50.457C87.7788 50.6668 88.166 50.9595 88.4331 51.3353C88.7003 51.7111 88.8338 52.2267 88.8338 52.8822C88.8338 53.7386 88.5988 54.4312 88.1288 54.9599C87.6588 55.4886 87.0619 55.753 86.3383 55.753C85.3036 55.753 84.5394 55.3248 84.0457 54.4683L84.8471 53.5769C85.0026 53.8915 85.2157 54.1362 85.4862 54.311C85.7567 54.4858 86.0509 54.5732 86.3687 54.5732C86.7678 54.5732 87.1059 54.4246 87.3832 54.1275C87.6605 53.8304 87.7991 53.4633 87.7991 53.0264C87.7991 52.703 87.7146 52.4321 87.5455 52.2136C87.3764 51.9952 87.0721 51.7985 86.6325 51.6237L85.9934 51.3484C85.3509 51.0688 84.9012 50.7127 84.6442 50.2801C84.3872 49.8475 84.2587 49.2904 84.2587 48.6087C84.2587 47.8833 84.4853 47.2673 84.9384 46.7604C85.3915 46.2535 85.9765 46.0001 86.6934 46.0001V46ZM102.415 46.236V47.4157H100.102V55.517H99.1283V47.4157H96.8154V46.236H102.415V46.236ZM111.644 46.236V51.9645C111.644 52.7248 111.808 53.3497 112.136 53.839C112.464 54.3284 112.902 54.5731 113.45 54.5731C113.998 54.5731 114.436 54.3284 114.764 53.839C115.092 53.3497 115.256 52.7248 115.256 51.9645V46.236H116.23V52.1742C116.23 52.8122 116.113 53.4086 115.88 53.9636C115.646 54.5185 115.315 54.9555 114.886 55.2745C114.456 55.5935 113.978 55.7529 113.45 55.7529C112.639 55.7529 111.972 55.4099 111.452 54.7239C110.931 54.0379 110.671 53.1879 110.671 52.1742V46.236H111.644V46.236ZM127.691 46.236C128.455 46.236 129.118 46.4391 129.679 46.8455C130.24 47.2519 130.67 47.809 130.967 48.5169C131.265 49.2248 131.414 50.0113 131.414 50.8765C131.414 51.7416 131.248 52.5304 130.917 53.2426C130.585 53.9548 130.122 54.512 129.527 54.914C128.932 55.3159 128.269 55.517 127.539 55.517H125.134V46.236H127.691V46.236ZM127.387 54.3372C127.934 54.3372 128.436 54.1995 128.893 53.9242C129.349 53.649 129.711 53.2535 129.978 52.7379C130.246 52.2223 130.379 51.6018 130.379 50.8764C130.379 49.8277 130.127 48.9888 129.623 48.3596C129.12 47.7303 128.452 47.4157 127.62 47.4157H126.108V54.3372H127.387V54.3372ZM141.14 46.236V55.517H140.166V46.236H141.14ZM153.636 46C154.705 46 155.596 46.4588 156.309 47.3764C157.023 48.294 157.379 49.4607 157.379 50.8765C157.379 51.7766 157.22 52.6003 156.903 53.3475C156.585 54.0947 156.137 54.6823 155.558 55.1106C154.98 55.5389 154.339 55.7529 153.636 55.7529C152.94 55.7529 152.304 55.541 151.729 55.1171C151.154 54.6933 150.704 54.1078 150.38 53.3606C150.055 52.6134 149.893 51.7853 149.893 50.8765C149.893 49.4957 150.243 48.3377 150.943 47.4026C151.643 46.4676 152.541 46 153.636 46V46ZM150.928 50.8765C150.928 51.9252 151.181 52.8035 151.688 53.5113C152.196 54.2192 152.845 54.5731 153.636 54.5731C154.414 54.5731 155.06 54.2236 155.574 53.5244C156.088 52.8253 156.345 51.9426 156.345 50.8765C156.345 49.819 156.091 48.9386 155.584 48.235C155.077 47.5315 154.424 47.1798 153.626 47.1798C152.855 47.1798 152.213 47.5294 151.699 48.2285C151.184 48.9276 150.928 49.8103 150.928 50.8765V50.8765Z" fill="url(#paint0_linear_39_383)"/>
<path d="M5.24121 20.1423C5.24121 20.3529 5.36178 20.5641 5.48235 20.6544L14.1874 27.244C14.4767 27.4847 14.8625 27.244 14.8625 26.7625V24.0539C14.8625 23.8134 14.742 23.663 14.6214 23.5727L9.50932 20.0222L14.6214 16.3513C14.742 16.231 14.8625 16.1106 14.8625 15.8398V13.1618C14.8625 12.6804 14.4767 12.4096 14.1874 12.6804L5.48235 19.4502C5.36178 19.5404 5.24121 19.8109 5.24121 19.9614V20.1422V20.1423ZM29.5961 7.08386C29.8616 7.08386 30.0784 7.35465 30.0784 7.65554V10.6644C30.0784 10.9954 29.8855 11.2361 29.5961 11.2361H20.9634V17.2841H25.5449C25.8102 17.2841 26.0272 17.5549 26.0272 17.8861V20.8647C26.0272 21.2257 25.8343 21.4367 25.5449 21.4367H20.9634V30.5537C20.9634 30.9147 20.7946 31.1551 20.5293 31.1551H18.6967C17.9492 31.1551 17.5151 30.4932 17.5151 29.6206V7.65533C17.5151 7.35444 17.7081 7.08364 17.9733 7.08364H29.5962L29.5961 7.08386ZM44.137 27.0026C44.4022 27.0026 44.5951 27.2439 44.5951 27.6047V30.5836C44.5951 30.8844 44.4022 31.1549 44.137 31.1549H32.7312C32.4901 31.1549 32.3695 30.9145 32.3695 30.6133V7.65572C32.3695 7.35483 32.5624 7.08403 32.8277 7.08403H35.3355C35.6008 7.08403 35.8178 7.35483 35.8178 7.65572V27.0025H44.1371L44.137 27.0026ZM59.9556 11.2362L51.1779 11.2356V17.2835H55.9041C56.1694 17.2835 56.3864 17.5543 56.3864 17.8856V20.8641C56.3864 21.2252 56.1935 21.4361 55.9041 21.4361H51.1779V27.0026H59.9553C60.2205 27.0026 60.4373 27.2731 60.4373 27.6041V30.5533C60.4373 30.8843 60.2205 31.1548 59.9553 31.1548H48.2119C47.9467 31.1548 47.7297 30.8843 47.7297 30.5533V7.65607C47.7297 7.35518 47.9226 7.08439 48.1881 7.08439H59.9556C60.2209 7.08439 60.4376 7.35518 60.4376 7.65607V10.665C60.4376 10.9959 60.2208 11.2366 59.9556 11.2366L59.9556 11.2362ZM79.6804 30.5531C79.8253 30.8236 79.6809 31.1546 79.4397 31.1546H76.0638C75.7983 31.1546 75.7018 30.854 75.533 30.5531L71.3372 22.8804L67.1416 30.5531C66.9725 30.854 66.8761 31.1546 66.6108 31.1546H63.2349C62.9935 31.1546 62.8491 30.8236 62.9935 30.5531L69.2631 19.0888L63.0177 7.65494C62.8489 7.35405 62.9695 7.08325 63.2347 7.08325H66.6347C66.8758 7.08325 66.9723 7.32396 67.1413 7.65494L71.3369 15.3276L75.5328 7.65494C75.7016 7.32396 75.798 7.08325 76.0394 7.08325H79.4394C79.7047 7.08325 79.8252 7.35405 79.6564 7.65494L73.411 19.0888L79.6804 30.5531Z" fill="url(#paint1_linear_39_383)"/>
<path d="M90.7168 24.0564C90.7168 24.326 90.6241 24.4458 90.4386 24.4458H83.137C82.9284 24.4458 82.8125 24.326 82.8125 24.0863V22.7684C82.8125 22.4988 82.9284 22.379 83.137 22.379H90.4386C90.6241 22.379 90.7168 22.4988 90.7168 22.7684V24.0564ZM108.959 26.9319C109.121 27.0813 109.075 27.321 108.867 27.5905C107.151 29.807 104.926 31.1547 102.168 31.1547C96.9521 31.1547 92.6871 25.8233 92.6871 18.994C92.6871 12.1945 96.9521 6.77295 102.168 6.77295C104.81 6.77295 107.174 8.09089 108.913 10.3373C109.121 10.6069 109.145 10.8166 109.006 10.9663L108.032 12.0147C107.87 12.1944 107.731 12.1944 107.568 11.9847C106.595 10.6671 104.671 9.04969 102.307 9.04969C97.2766 9.04969 94.495 14.3215 94.495 18.9941C94.495 23.7268 97.2766 28.8787 102.307 28.8787C104.671 28.8787 106.479 27.3211 107.499 26.0032C107.684 25.7636 107.823 25.7037 107.986 25.8834L108.959 26.9319ZM126.089 6.98323H124.861C124.629 6.98323 124.536 7.07309 124.536 7.37293V21.7802C124.536 26.7824 121.639 28.879 119.019 28.879C116.47 28.879 113.618 26.7824 113.618 21.7802V7.37293C113.618 7.10335 113.526 6.98353 113.317 6.98353H112.112C111.88 6.98353 111.787 7.10335 111.787 7.37293V22.1096C111.81 26.9328 114.476 31.1554 119.019 31.1554C123.585 31.1554 126.344 26.9326 126.367 22.1096V7.37293C126.367 7.0731 126.274 6.98323 126.089 6.98323H126.089ZM143.15 6.98323C143.358 6.98323 143.451 7.10305 143.451 7.37263V8.87029C143.451 9.10992 143.358 9.25969 143.15 9.25969H137.169V30.5267C137.169 30.7963 137.077 30.9457 136.891 30.9457H135.964C135.547 30.9457 135.338 30.6162 135.338 30.1073V9.25918H129.358C129.149 9.25918 129.033 9.10941 129.033 8.86978V7.40207C129.033 7.10254 129.149 6.98272 129.358 6.98272H143.15L143.15 6.98323ZM155.249 19.9228V19.6236C155.249 19.5037 155.156 19.354 155.064 19.2941L146.232 12.285C146.07 12.1652 145.884 12.2551 145.884 12.5549V14.0223C145.884 14.1721 145.931 14.2619 146 14.3218L153.024 19.7731L146.047 25.1946C145.954 25.2845 145.884 25.3743 145.884 25.5541V26.9918C145.884 27.2614 146.047 27.4109 146.232 27.2614L155.064 20.2523C155.156 20.1924 155.249 20.0427 155.249 19.9228L155.249 19.9228Z" fill="url(#paint2_linear_39_383)"/>
<defs>
<linearGradient id="paint0_linear_39_383" x1="2" y1="46" x2="157.379" y2="46" gradientUnits="userSpaceOnUse">
<stop stop-color="#8F5E25"/>
<stop offset="0.5" stop-color="#FBF4A1"/>
<stop offset="1" stop-color="#8F5E25"/>
</linearGradient>
<linearGradient id="paint1_linear_39_383" x1="5.24121" y1="7.08325" x2="79.7383" y2="7.08325" gradientUnits="userSpaceOnUse">
<stop stop-color="#7F00FF"/>
<stop offset="1" stop-color="#E100FF"/>
</linearGradient>
<linearGradient id="paint2_linear_39_383" x1="82.8125" y1="6.77295" x2="155.249" y2="6.77295" gradientUnits="userSpaceOnUse">
<stop stop-color="#8F5E25"/>
<stop offset="0.5" stop-color="#FBF4A1"/>
<stop offset="1" stop-color="#8F5E25"/>
</linearGradient>
</defs>
</svg>
