<svg width="152" height="29" viewBox="0 0 152 29" fill="none" xmlns="http://www.w3.org/2000/svg">
<path d="M0 15.7288C0 15.9766 0.122095 16.2251 0.244188 16.3313L9.05938 24.0837C9.35241 24.3669 9.74312 24.0837 9.74312 23.5173V20.3307C9.74312 20.0478 9.62103 19.8708 9.49893 19.7646L4.32213 15.5875L9.49893 11.2689C9.62103 11.1273 9.74312 10.9857 9.74312 10.6671V7.51651C9.74312 6.95012 9.35241 6.63154 9.05938 6.95012L0.244188 14.9146C0.122092 15.0207 0 15.339 0 15.516V15.7287V15.7288ZM24.6632 0.365944C24.932 0.365944 25.1515 0.68453 25.1515 1.03852V4.57838C25.1515 4.96776 24.9562 5.25095 24.6632 5.25095H15.9212V12.3662H20.5607C20.8293 12.3662 21.0491 12.6848 21.0491 13.0745V16.5787C21.0491 17.0034 20.8537 17.2516 20.5607 17.2516H15.9212V27.9775C15.9212 28.4023 15.7502 28.6851 15.4816 28.6851H13.6258C12.8688 28.6851 12.4293 27.9063 12.4293 26.8797V1.03827C12.4293 0.684279 12.6246 0.365693 12.8933 0.365693H24.6632L24.6632 0.365944ZM39.3881 23.7998C39.6567 23.7998 39.8521 24.0836 39.8521 24.5081V28.0126C39.8521 28.3666 39.6567 28.6849 39.3881 28.6849H27.838C27.5938 28.6849 27.4717 28.402 27.4717 28.0477V1.03873C27.4717 0.684739 27.6671 0.366154 27.9357 0.366154H30.4752C30.7438 0.366154 30.9636 0.684739 30.9636 1.03873V23.7996H39.3882L39.3881 23.7998ZM55.407 5.25103L46.5181 5.25034V12.3656H51.3042C51.5728 12.3656 51.7926 12.6842 51.7926 13.0739V16.578C51.7926 17.0028 51.5972 17.251 51.3042 17.251H46.5181V23.7998H55.4067C55.6753 23.7998 55.8948 24.118 55.8948 24.5074V27.9771C55.8948 28.3665 55.6753 28.6847 55.4067 28.6847H43.5147C43.2461 28.6847 43.0263 28.3665 43.0263 27.9771V1.03914C43.0263 0.685155 43.2216 0.366569 43.4905 0.366569H55.407C55.6756 0.366569 55.8951 0.685155 55.8951 1.03914V4.579C55.8951 4.96839 55.6756 5.25158 55.407 5.25158L55.407 5.25103ZM75.3814 27.9768C75.5282 28.2951 75.3819 28.6844 75.1377 28.6844H71.719C71.4502 28.6844 71.3525 28.3308 71.1816 27.9768L66.9326 18.9501L62.6839 27.9768C62.5127 28.3308 62.4151 28.6844 62.1465 28.6844H58.7278C58.4833 28.6844 58.3371 28.295 58.4833 27.9768L64.8323 14.4895L58.5078 1.03781C58.3369 0.68382 58.459 0.365234 58.7276 0.365234H62.1706C62.4148 0.365234 62.5125 0.648419 62.6837 1.03781L66.9324 10.0645L71.1813 1.03781C71.3523 0.648419 71.4499 0.365234 71.6944 0.365234H75.1374C75.406 0.365234 75.5281 0.68382 75.3572 1.03781L69.0327 14.4895L75.3814 27.9768Z" fill="url(#paint0_linear_403_2)"/>
<path d="M86.5575 20.3335C86.5575 20.6506 86.4636 20.7916 86.2758 20.7916H78.8818C78.6705 20.7916 78.5532 20.6506 78.5532 20.3687V18.8182C78.5532 18.501 78.6705 18.3601 78.8818 18.3601H86.2758C86.4636 18.3601 86.5575 18.501 86.5575 18.8182V20.3335ZM105.031 23.7164C105.195 23.8922 105.148 24.1741 104.937 24.4913C103.2 27.0989 100.946 28.6844 98.1532 28.6844C92.8717 28.6844 88.5528 22.4122 88.5528 14.3777C88.5528 6.37829 92.8717 0 98.1532 0C100.829 0 103.223 1.55052 104.984 4.19335C105.195 4.5105 105.219 4.75719 105.078 4.93337L104.092 6.16674C103.928 6.37817 103.787 6.37816 103.622 6.1315C102.637 4.58134 100.688 2.67852 98.294 2.67852C93.2003 2.67852 90.3835 8.88071 90.3835 14.3779C90.3835 19.9457 93.2003 26.0067 98.294 26.0067C100.688 26.0067 102.519 24.1743 103.552 22.6238C103.74 22.3419 103.881 22.2714 104.045 22.4829L105.031 23.7164ZM122.377 0.247393H121.134C120.899 0.247393 120.805 0.353109 120.805 0.705857V17.6556C120.805 23.5405 117.871 26.0072 115.218 26.0072C112.636 26.0072 109.749 23.5405 109.749 17.6556V0.705857C109.749 0.38871 109.655 0.247747 109.444 0.247747H108.223C107.989 0.247747 107.895 0.388704 107.895 0.705857V18.0431C107.918 23.7174 110.617 28.6853 115.218 28.6853C119.842 28.6853 122.635 23.7172 122.659 18.0431V0.705857C122.659 0.353116 122.565 0.247393 122.377 0.247393H122.377ZM139.654 0.247393C139.865 0.247393 139.959 0.388351 139.959 0.705504V2.46747C139.959 2.74937 139.866 2.92558 139.654 2.92558H133.598V27.9456C133.598 28.2627 133.504 28.4386 133.317 28.4386H132.378C131.955 28.4386 131.744 28.0509 131.744 27.4522V2.92497H125.688C125.476 2.92497 125.359 2.74878 125.359 2.46686V0.740142C125.359 0.387754 125.476 0.24679 125.688 0.24679H139.655L139.654 0.247393ZM151.907 15.4704V15.1184C151.907 14.9774 151.813 14.8012 151.719 14.7307L142.775 6.48478C142.611 6.34382 142.423 6.44954 142.423 6.80228V8.52865C142.423 8.70485 142.47 8.81056 142.541 8.88104L149.653 15.2943L142.588 21.6725C142.494 21.7783 142.423 21.884 142.423 22.0954V23.7869C142.423 24.104 142.588 24.2799 142.775 24.104L151.719 15.8581C151.813 15.7876 151.907 15.6114 151.907 15.4705L151.907 15.4704Z" fill="url(#paint1_linear_403_2)"/>
<defs>
<linearGradient id="paint0_linear_403_2" x1="0" y1="0.365234" x2="75.4401" y2="0.365234" gradientUnits="userSpaceOnUse">
<stop stop-color="#7F00FF"/>
<stop offset="1" stop-color="#E100FF"/>
</linearGradient>
<linearGradient id="paint1_linear_403_2" x1="78.5532" y1="0" x2="151.907" y2="0" gradientUnits="userSpaceOnUse">
<stop stop-color="#8F5E25"/>
<stop offset="0.5" stop-color="#FBF4A1"/>
<stop offset="1" stop-color="#8F5E25"/>
</linearGradient>
</defs>
</svg>
