<svg width="718" height="267" viewBox="0 0 718 267" fill="none" xmlns="http://www.w3.org/2000/svg">
<path d="M20.6134 181.544C23.5944 181.544 25.9609 182.368 27.7127 184.015C29.4644 185.662 30.3403 187.875 30.3403 190.655C30.3403 194.601 28.4656 197.277 24.7162 198.684V198.787H24.7623C26.8829 199.062 28.5809 200.048 29.8563 201.747C31.1316 203.445 31.7694 205.478 31.7694 207.846C31.7694 210.9 30.7168 213.353 28.6116 215.206C26.5064 217.059 23.7942 217.986 20.4751 217.986H9.08862V181.544H20.6134V181.544ZM19.6914 196.677C21.5354 196.677 22.9875 196.205 24.0478 195.261C25.1081 194.318 25.6382 192.971 25.6382 191.221C25.6382 189.574 25.1772 188.27 24.2552 187.309C23.3333 186.348 22.1193 185.868 20.6134 185.868H13.5141V196.677H19.6914V196.677ZM20.1985 213.662C22.3805 213.662 24.0708 213.096 25.2694 211.964C26.468 210.831 27.0673 209.339 27.0673 207.486C27.0673 205.427 26.4603 203.831 25.2464 202.699C24.0324 201.566 22.3191 201 20.1063 201H13.5141V213.662H20.1985V213.662ZM85.7883 181.544L99.7564 217.986H94.5933L91.3202 208.978H75.7848L72.5579 217.986H67.3948L81.7777 181.544H85.7883ZM77.3522 204.655H89.7068L83.6217 187.927H83.5295L77.3522 204.655ZM149.119 181.544C152.316 181.544 154.82 182.436 156.633 184.221C158.447 186.005 159.353 188.51 159.353 191.735C159.353 194.172 158.608 196.299 157.118 198.118C155.627 199.937 153.714 201.018 151.378 201.361H151.332L160.598 217.986H155.066L146.768 201.927H141.836V217.986H137.41V181.544H149.119V181.544ZM147.829 197.603C150.134 197.603 151.847 197.131 152.969 196.188C154.09 195.244 154.651 193.76 154.651 191.735C154.651 187.824 152.377 185.868 147.829 185.868H141.836V197.603H147.829V197.603ZM210.514 181.544C213.495 181.544 215.862 182.368 217.613 184.015C219.365 185.662 220.241 187.875 220.241 190.655C220.241 194.601 218.366 197.277 214.617 198.684V198.787H214.663C216.784 199.062 218.482 200.048 219.757 201.747C221.032 203.445 221.67 205.478 221.67 207.846C221.67 210.9 220.618 213.353 218.512 215.206C216.407 217.059 213.695 217.986 210.376 217.986H198.989V181.544H210.514V181.544ZM209.592 196.677C211.436 196.677 212.888 196.205 213.949 195.261C215.009 194.318 215.539 192.971 215.539 191.221C215.539 189.574 215.078 188.27 214.156 187.309C213.234 186.348 212.02 185.868 210.514 185.868H203.415V196.677H209.592V196.677ZM210.099 213.662C212.281 213.662 213.972 213.096 215.17 211.964C216.369 210.831 216.968 209.339 216.968 207.486C216.968 205.427 216.361 203.831 215.147 202.699C213.933 201.566 212.22 201 210.007 201H203.415V213.662H210.099ZM282.512 181.544V186.177H265.87V197.037H281.359V201.669H265.87V213.353H283.342V217.986H261.444V181.544H282.512ZM334.733 181.544C337.929 181.544 340.434 182.436 342.247 184.221C344.06 186.005 344.967 188.51 344.967 191.735C344.967 194.172 344.222 196.299 342.731 198.118C341.241 199.937 339.327 201.018 336.992 201.361H336.946L346.212 217.986H340.68L332.382 201.927H327.449V217.986H323.024V181.544H334.733V181.544ZM333.442 197.603C335.747 197.603 337.46 197.131 338.582 196.188C339.704 195.244 340.265 193.76 340.265 191.735C340.265 187.824 337.99 185.868 333.442 185.868H327.449V197.603H333.442V197.603ZM393.961 180.618C398.202 180.618 401.337 182.008 403.365 184.787L399.769 188.442C399.216 187.481 398.433 186.709 397.418 186.125C396.404 185.542 395.236 185.25 393.915 185.25C392.009 185.25 390.48 185.774 389.328 186.82C388.176 187.867 387.599 189.214 387.599 190.861C387.599 193.606 389.228 195.527 392.486 196.625L396.589 198.118C398.894 198.942 400.653 200.091 401.867 201.567C403.081 203.042 403.688 205.067 403.688 207.64C403.688 211.003 402.62 213.723 400.484 215.798C398.348 217.874 395.636 218.913 392.347 218.913C387.645 218.913 384.173 217.231 381.929 213.868L385.571 210.368C386.278 211.604 387.246 212.564 388.475 213.251C389.705 213.937 391.041 214.28 392.486 214.28C394.299 214.28 395.836 213.697 397.096 212.53C398.356 211.363 398.986 209.922 398.986 208.206C398.986 206.937 398.602 205.873 397.833 205.015C397.065 204.157 395.682 203.385 393.684 202.699L390.78 201.618C387.86 200.52 385.817 199.122 384.649 197.423C383.481 195.725 382.897 193.537 382.897 190.861C382.897 188.013 383.927 185.594 385.986 183.603C388.045 181.613 390.703 180.618 393.961 180.618V180.618ZM465.405 181.544V186.177H454.895V217.986H450.469V186.177H439.959V181.544H465.405V181.544ZM507.346 181.544V204.037C507.346 207.022 508.092 209.476 509.582 211.397C511.073 213.319 513.063 214.28 515.552 214.28C518.041 214.28 520.031 213.319 521.522 211.397C523.012 209.476 523.758 207.022 523.758 204.037V181.544H528.183V204.861C528.183 207.366 527.653 209.707 526.593 211.886C525.532 214.065 524.027 215.781 522.075 217.034C520.123 218.286 517.949 218.912 515.552 218.912C511.864 218.912 508.837 217.565 506.47 214.872C504.104 212.178 502.921 208.841 502.921 204.861V181.544H507.346V181.544ZM580.266 181.544C583.739 181.544 586.751 182.342 589.301 183.938C591.852 185.533 593.804 187.721 595.156 190.5C596.508 193.28 597.184 196.368 597.184 199.765C597.184 203.162 596.431 206.259 594.925 209.056C593.42 211.852 591.314 214.04 588.61 215.618C585.906 217.196 582.894 217.986 579.574 217.986H568.649V181.544H580.266V181.544ZM578.883 213.353C581.372 213.353 583.654 212.813 585.729 211.732C587.803 210.651 589.447 209.098 590.661 207.074C591.875 205.049 592.482 202.613 592.482 199.765C592.482 195.647 591.337 192.353 589.048 189.882C586.758 187.412 583.723 186.177 579.943 186.177H573.075V213.353H578.883V213.353ZM641.384 181.544V217.986H636.959V181.544H641.384ZM698.169 180.618C703.025 180.618 707.074 182.419 710.316 186.022C713.558 189.625 715.18 194.206 715.18 199.765C715.18 203.299 714.457 206.533 713.013 209.467C711.569 212.401 709.533 214.709 706.905 216.39C704.277 218.072 701.365 218.912 698.169 218.912C695.004 218.912 692.115 218.08 689.502 216.416C686.89 214.752 684.846 212.453 683.371 209.519C681.896 206.585 681.159 203.333 681.159 199.765C681.159 194.343 682.749 189.797 685.93 186.125C689.111 182.454 693.19 180.618 698.169 180.618V180.618ZM685.861 199.765C685.861 203.883 687.013 207.331 689.318 210.111C691.623 212.89 694.573 214.28 698.169 214.28C701.703 214.28 704.638 212.907 706.974 210.162C709.31 207.417 710.478 203.951 710.478 199.765C710.478 195.613 709.325 192.156 707.02 189.394C704.715 186.631 701.75 185.25 698.123 185.25C694.619 185.25 691.7 186.623 689.364 189.368C687.028 192.113 685.861 195.579 685.861 199.765V199.765Z" fill="url(#paint0_linear_308_2)"/>
<path d="M23.8177 79.0884C23.8177 79.9154 24.3657 80.7448 24.9135 81.0992L64.4717 106.973C65.7867 107.918 67.54 106.973 67.54 105.083V94.4471C67.54 93.5031 66.9921 92.9124 66.4442 92.5579L43.2133 78.6169L66.4442 64.2034C66.9921 63.7308 67.54 63.2582 67.54 62.1949V51.6799C67.54 49.7896 65.7867 48.7263 64.4717 49.7896L24.9135 76.3708C24.3656 76.7253 23.8177 77.7874 23.8177 78.3781V79.0884ZM134.494 27.8149C135.7 27.8149 136.685 28.8781 136.685 30.0596V41.8739C136.685 43.1734 135.809 44.1186 134.494 44.1186H95.264V67.8657H116.084C117.289 67.8657 118.276 68.9289 118.276 70.2297V81.9248C118.276 83.3425 117.399 84.1707 116.084 84.1707H95.264V119.968C95.264 121.386 94.4969 122.33 93.2915 122.33H84.9637C81.5667 122.33 79.5942 119.731 79.5942 116.305V30.0587C79.5942 28.8773 80.4709 27.814 81.6762 27.814L134.494 27.8149ZM200.572 106.025C201.777 106.025 202.654 106.973 202.654 108.389V120.086C202.654 121.267 201.777 122.329 200.572 122.329H148.741C147.645 122.329 147.097 121.385 147.097 120.203V30.0603C147.097 28.8788 147.974 27.8156 149.179 27.8156H160.575C161.781 27.8156 162.767 28.8788 162.767 30.0603V106.025L200.572 106.025ZM272.456 44.1189L232.568 44.1165V67.8636H254.045C255.251 67.8636 256.237 68.9269 256.237 70.2277V81.9228C256.237 83.3405 255.36 84.1687 254.045 84.1687H232.568V106.025H272.455C273.661 106.025 274.646 107.087 274.646 108.387V119.967C274.646 121.267 273.66 122.329 272.455 122.329H219.09C217.884 122.329 216.898 121.267 216.898 119.967V30.0617C216.898 28.8802 217.775 27.817 218.981 27.817H272.457C273.662 27.817 274.647 28.8802 274.647 30.0617V41.876C274.647 43.1755 273.662 44.1207 272.457 44.1207L272.456 44.1189ZM362.092 119.966C362.751 121.028 362.094 122.328 360.998 122.328H345.657C344.45 122.328 344.012 121.147 343.245 119.966L324.178 89.8396L305.112 119.966C304.344 121.148 303.905 122.328 302.7 122.328H287.359C286.262 122.328 285.605 121.028 286.262 119.966L314.753 74.9521L286.372 30.0572C285.605 28.8758 286.152 27.8125 287.358 27.8125H302.808C303.904 27.8125 304.343 28.7576 305.111 30.0572L324.177 60.1837L343.244 30.0572C344.011 28.7576 344.449 27.8125 345.546 27.8125H360.997C362.202 27.8125 362.75 28.8758 361.983 30.0572L333.602 74.9521L362.092 119.966Z" fill="url(#paint1_linear_308_2)"/>
<path d="M412.245 94.4565C412.245 95.515 411.823 95.9855 410.981 95.9855H377.8C376.852 95.9855 376.325 95.515 376.325 94.5742V89.3993C376.325 88.3408 376.852 87.8704 377.8 87.8704H410.981C411.823 87.8704 412.245 88.3408 412.245 89.3993V94.4565ZM495.144 105.747C495.881 106.334 495.67 107.275 494.722 108.333C486.927 117.036 476.815 122.328 464.28 122.328C440.58 122.328 421.198 101.394 421.198 74.5791C421.198 47.8812 440.58 26.5936 464.28 26.5936C476.289 26.5936 487.033 31.7685 494.933 40.5889C495.881 41.6474 495.986 42.4707 495.354 43.0588L490.93 47.1751C490.193 47.8808 489.561 47.8808 488.824 47.0575C484.4 41.8838 475.657 35.5332 464.912 35.5332C442.054 35.5332 429.414 56.233 429.414 74.5798C429.414 93.1625 442.054 113.391 464.912 113.391C475.656 113.391 483.872 107.275 488.507 102.101C489.35 101.16 489.982 100.925 490.719 101.63L495.144 105.747ZM572.986 27.4193H567.406C566.352 27.4193 565.931 27.7721 565.931 28.9494V85.5191C565.931 105.16 552.764 113.393 540.86 113.393C529.273 113.393 516.316 105.16 516.316 85.5191V28.9494C516.316 27.8909 515.895 27.4205 514.947 27.4205H509.47C508.416 27.4205 507.995 27.8909 507.995 28.9494V86.8126C508.099 105.751 520.213 122.331 540.859 122.331C561.61 122.331 574.145 105.75 574.25 86.8126V28.9494C574.25 27.7722 573.829 27.4193 572.986 27.4193H572.986ZM650.515 27.4193C651.463 27.4193 651.886 27.8897 651.886 28.9482V34.8288C651.886 35.7697 651.464 36.3577 650.516 36.3577H623.34V119.862C623.34 120.92 622.918 121.507 622.076 121.507H617.862C615.966 121.507 615.018 120.214 615.018 118.215V36.3557H587.841C586.893 36.3557 586.367 35.7677 586.367 34.8268V29.0639C586.367 27.8878 586.893 27.4173 587.841 27.4173H650.518L650.515 27.4193ZM705.499 78.2262V77.0512C705.499 76.5807 705.078 75.9927 704.656 75.7575L664.522 48.2366C663.785 47.7661 662.942 48.119 662.942 49.2963V55.058C662.942 55.6461 663.153 55.9989 663.469 56.2341L695.386 77.6382L663.68 98.9258C663.258 99.2786 662.942 99.6314 662.942 100.337V105.982C662.942 107.041 663.68 107.628 664.522 107.041L704.656 79.52C705.078 79.2848 705.499 78.6968 705.499 78.2263L705.499 78.2262Z" fill="url(#paint2_linear_308_2)"/>
<defs>
<linearGradient id="paint0_linear_308_2" x1="9.08862" y1="180.618" x2="715.18" y2="180.618" gradientUnits="userSpaceOnUse">
<stop stop-color="#8F5E25"/>
<stop offset="0.5" stop-color="#FBF4A1"/>
<stop offset="1" stop-color="#8F5E25"/>
</linearGradient>
<linearGradient id="paint1_linear_308_2" x1="23.8177" y1="27.8125" x2="362.355" y2="27.8125" gradientUnits="userSpaceOnUse">
<stop stop-color="#7F00FF"/>
<stop offset="1" stop-color="#E100FF"/>
</linearGradient>
<linearGradient id="paint2_linear_308_2" x1="376.325" y1="26.5936" x2="705.499" y2="26.5936" gradientUnits="userSpaceOnUse">
<stop stop-color="#8F5E25"/>
<stop offset="0.5" stop-color="#FBF4A1"/>
<stop offset="1" stop-color="#8F5E25"/>
</linearGradient>
</defs>
</svg>
