<svg width="394" height="137" viewBox="0 0 394 137" fill="none" xmlns="http://www.w3.org/2000/svg">
<path d="M11.3115 93.1519C12.9474 93.1519 14.246 93.5745 15.2072 94.4196C16.1685 95.2647 16.6492 96.4004 16.6492 97.8265C16.6492 99.8513 15.6204 101.225 13.563 101.947V101.999H13.5883C14.7519 102.14 15.6837 102.646 16.3835 103.518C17.0834 104.389 17.4334 105.433 17.4334 106.648C17.4334 108.215 16.8558 109.473 15.7005 110.424C14.5453 111.375 13.057 111.85 11.2357 111.85H4.98737V93.1519H11.3115V93.1519ZM10.8056 100.917C11.8175 100.917 12.6143 100.674 13.1962 100.19C13.778 99.7061 14.0689 99.015 14.0689 98.117C14.0689 97.2719 13.8159 96.6028 13.31 96.1099C12.8041 95.6169 12.1379 95.3704 11.3115 95.3704H7.41585V100.917H10.8056V100.917ZM11.0839 109.632C12.2812 109.632 13.2088 109.341 13.8665 108.76C14.5242 108.179 14.8531 107.413 14.8531 106.463C14.8531 105.406 14.52 104.588 13.8539 104.007C13.1877 103.426 12.2475 103.135 11.0333 103.135H7.41585V109.632H11.0839V109.632ZM47.0761 93.1519L54.741 111.85H51.9078L50.1117 107.229H41.5867L39.8159 111.85H36.9827L44.8753 93.1519H47.0761ZM42.4468 105.01H49.2263L45.8871 96.4268H45.8365L42.4468 105.01ZM81.8287 93.1519C83.5827 93.1519 84.9572 93.6097 85.9521 94.5252C86.947 95.4408 87.4446 96.7261 87.4446 98.3811C87.4446 99.6312 87.0356 100.723 86.2177 101.656C85.3998 102.589 84.3499 103.144 83.0683 103.32H83.043L88.1276 111.85H85.092L80.5386 103.61H77.8318V111.85H75.4034V93.1519H81.8287V93.1519ZM81.1204 101.392C82.3853 101.392 83.3254 101.15 83.941 100.666C84.5566 100.181 84.8643 99.4199 84.8643 98.3811C84.8643 96.3739 83.6164 95.3703 81.1204 95.3703H77.8318V101.392H81.1204V101.392ZM115.519 93.1519C117.155 93.1519 118.453 93.5745 119.415 94.4196C120.376 95.2647 120.857 96.4004 120.857 97.8265C120.857 99.8513 119.828 101.225 117.77 101.947V101.999H117.796C118.959 102.14 119.891 102.646 120.591 103.518C121.291 104.389 121.641 105.433 121.641 106.648C121.641 108.215 121.063 109.473 119.908 110.424C118.753 111.375 117.264 111.85 115.443 111.85H109.195V93.1519H115.519V93.1519ZM115.013 100.917C116.025 100.917 116.822 100.674 117.404 100.19C117.985 99.7061 118.276 99.015 118.276 98.117C118.276 97.2719 118.023 96.6028 117.517 96.1099C117.011 95.6169 116.345 95.3704 115.519 95.3704H111.623V100.917H115.013V100.917ZM115.291 109.632C116.489 109.632 117.416 109.341 118.074 108.76C118.732 108.179 119.06 107.413 119.06 106.463C119.06 105.406 118.727 104.588 118.061 104.007C117.395 103.426 116.455 103.135 115.241 103.135H111.623V109.632H115.291ZM155.027 93.1519V95.5288H145.895V101.101H154.395V103.478H145.895V109.473H155.483V111.85H143.467V93.1519H155.027ZM183.684 93.1519C185.437 93.1519 186.812 93.6097 187.807 94.5252C188.802 95.4408 189.299 96.7261 189.299 98.3811C189.299 99.6312 188.89 100.723 188.072 101.656C187.255 102.589 186.205 103.144 184.923 103.32H184.898L189.982 111.85H186.947L182.393 103.61H179.687V111.85H177.258V93.1519H183.684V93.1519ZM182.975 101.392C184.24 101.392 185.18 101.15 185.796 100.666C186.411 100.181 186.719 99.4199 186.719 98.3811C186.719 96.3739 185.471 95.3703 182.975 95.3703H179.687V101.392H182.975V101.392ZM216.185 92.6765C218.512 92.6765 220.232 93.3897 221.345 94.8159L219.372 96.691C219.069 96.198 218.639 95.8019 218.082 95.5025C217.525 95.2032 216.885 95.0536 216.159 95.0536C215.114 95.0536 214.275 95.3221 213.642 95.8591C213.01 96.3961 212.694 97.0872 212.694 97.9323C212.694 99.3409 213.588 100.327 215.375 100.89L217.627 101.656C218.892 102.079 219.857 102.669 220.523 103.426C221.189 104.183 221.522 105.222 221.522 106.542C221.522 108.268 220.936 109.663 219.764 110.728C218.592 111.793 217.104 112.326 215.299 112.326C212.719 112.326 210.813 111.463 209.582 109.738L211.581 107.942C211.969 108.576 212.5 109.069 213.174 109.421C213.849 109.773 214.583 109.949 215.375 109.949C216.37 109.949 217.213 109.65 217.905 109.051C218.596 108.452 218.942 107.713 218.942 106.833C218.942 106.181 218.731 105.635 218.31 105.195C217.888 104.755 217.129 104.359 216.033 104.007L214.439 103.452C212.837 102.889 211.716 102.171 211.075 101.3C210.434 100.428 210.114 99.3056 210.114 97.9323C210.114 96.4709 210.678 95.2297 211.808 94.2084C212.938 93.1872 214.397 92.6766 216.185 92.6766V92.6765ZM255.39 93.1519V95.5288H249.622V111.85H247.193V95.5288H241.426V93.1519H255.39V93.1519ZM278.405 93.1519V104.693C278.405 106.225 278.814 107.484 279.631 108.47C280.449 109.456 281.541 109.949 282.907 109.949C284.273 109.949 285.365 109.456 286.183 108.47C287.001 107.484 287.41 106.225 287.41 104.693V93.1519H289.839V105.116C289.839 106.401 289.548 107.603 288.966 108.721C288.384 109.839 287.558 110.719 286.487 111.362C285.416 112.005 284.223 112.326 282.907 112.326C280.884 112.326 279.222 111.635 277.924 110.253C276.625 108.87 275.976 107.158 275.976 105.116V93.1519H278.405V93.1519ZM318.419 93.1519C320.325 93.1519 321.977 93.5613 323.377 94.38C324.777 95.1987 325.848 96.3211 326.59 97.7473C327.332 99.1734 327.703 100.758 327.703 102.501C327.703 104.244 327.29 105.833 326.463 107.268C325.637 108.703 324.482 109.826 322.998 110.636C321.514 111.445 319.861 111.85 318.04 111.85H312.044V93.1519H318.419V93.1519ZM317.66 109.473C319.026 109.473 320.278 109.196 321.417 108.642C322.555 108.087 323.457 107.29 324.123 106.251C324.79 105.213 325.123 103.963 325.123 102.501C325.123 100.388 324.494 98.698 323.238 97.4303C321.982 96.1626 320.316 95.5288 318.242 95.5288H314.473V109.473H317.66V109.473ZM351.957 93.1519V111.85H349.529V93.1519H351.957ZM383.118 92.6765C385.782 92.6765 388.004 93.6008 389.784 95.4496C391.563 97.2983 392.452 99.6488 392.452 102.501C392.452 104.315 392.056 105.974 391.263 107.479C390.471 108.985 389.354 110.169 387.912 111.032C386.47 111.895 384.872 112.326 383.118 112.326C381.381 112.326 379.796 111.899 378.362 111.045C376.929 110.191 375.807 109.011 374.998 107.506C374.188 106.001 373.783 104.332 373.783 102.501C373.783 99.7194 374.656 97.3863 376.402 95.5024C378.147 93.6186 380.386 92.6765 383.118 92.6765V92.6765ZM376.364 102.501C376.364 104.614 376.996 106.383 378.261 107.81C379.526 109.236 381.145 109.949 383.118 109.949C385.057 109.949 386.668 109.245 387.95 107.836C389.231 106.427 389.872 104.649 389.872 102.501C389.872 100.371 389.24 98.5969 387.975 97.1795C386.71 95.762 385.083 95.0534 383.093 95.0534C381.17 95.0534 379.568 95.7577 378.286 97.1663C377.004 98.5748 376.364 100.353 376.364 102.501V102.501Z" fill="url(#paint0_linear_100_75)"/>
<path d="M13.0699 40.5809C13.0699 41.0052 13.3705 41.4308 13.6712 41.6126L35.3786 54.8887C36.1002 55.3736 37.0623 54.8887 37.0623 53.9187V48.4615C37.0623 47.9771 36.7617 47.6741 36.461 47.4922L23.7131 40.339L36.461 32.9432C36.7617 32.7007 37.0623 32.4583 37.0623 31.9127V26.5173C37.0623 25.5474 36.1002 25.0018 35.3786 25.5474L13.6712 39.1865C13.3705 39.3683 13.0699 39.9133 13.0699 40.2164V40.5807V40.5809ZM73.8029 14.272C74.465 14.272 75.0056 14.8175 75.0056 15.4237V21.4858C75.0056 22.1526 74.5245 22.6375 73.8029 22.6375H52.2757V34.8224H63.7006C64.3621 34.8224 64.9033 35.368 64.9033 36.0354V42.0362C64.9033 42.7637 64.4222 43.1886 63.7006 43.1886H52.2757V61.5567C52.2757 62.2842 51.8548 62.7685 51.1934 62.7685H46.6235C44.7594 62.7685 43.677 61.4349 43.677 59.6768V15.4233C43.677 14.8171 44.1581 14.2715 44.8195 14.2715H73.8031L73.8029 14.272ZM110.063 54.4024C110.725 54.4024 111.206 54.8885 111.206 55.6154V61.6169C111.206 62.2232 110.725 62.7681 110.063 62.7681H81.621C81.0197 62.7681 80.719 62.2837 80.719 61.677V15.4241C80.719 14.8179 81.2 14.2723 81.8615 14.2723H88.1151C88.7766 14.2723 89.3178 14.8179 89.3178 15.4241V54.4021H110.063L110.063 54.4024ZM149.51 22.6377L127.621 22.6365V34.8213H139.407C140.068 34.8213 140.609 35.3669 140.609 36.0343V42.0352C140.609 42.7626 140.128 43.1876 139.407 43.1876H127.621V54.4024H149.509C150.17 54.4024 150.711 54.9474 150.711 55.6142V61.5561C150.711 62.2229 150.17 62.7679 149.509 62.7679H120.225C119.563 62.7679 119.022 62.2229 119.022 61.5561V15.4248C119.022 14.8186 119.503 14.273 120.165 14.273H149.51C150.171 14.273 150.712 14.8186 150.712 15.4248V21.4868C150.712 22.1537 150.171 22.6386 149.51 22.6386L149.51 22.6377ZM198.697 61.5556C199.058 62.1006 198.698 62.7674 198.097 62.7674H189.678C189.016 62.7674 188.775 62.1617 188.355 61.5556L177.891 46.0974L167.429 61.5556C167.008 62.1618 166.767 62.7674 166.106 62.7674H157.687C157.085 62.7674 156.725 62.1005 157.085 61.5556L172.719 38.4585L157.145 15.4225C156.725 14.8163 157.025 14.2708 157.687 14.2708H166.165C166.766 14.2708 167.007 14.7557 167.428 15.4225L177.891 30.8807L188.354 15.4225C188.775 14.7557 189.015 14.2708 189.617 14.2708H198.096C198.757 14.2708 199.058 14.8163 198.637 15.4225L183.063 38.4585L198.697 61.5556Z" fill="url(#paint1_linear_100_75)"/>
<path d="M226.218 48.4665C226.218 49.0097 225.987 49.2511 225.524 49.2511H207.316C206.796 49.2511 206.507 49.0097 206.507 48.5269V45.8716C206.507 45.3285 206.796 45.0871 207.316 45.0871H225.524C225.987 45.0871 226.218 45.3285 226.218 45.8716V48.4665ZM271.708 54.2598C272.113 54.5609 271.997 55.0437 271.477 55.5868C267.199 60.0524 261.651 62.7676 254.772 62.7676C241.767 62.7676 231.131 52.0263 231.131 38.2673C231.131 24.5683 241.767 13.6455 254.772 13.6455C261.362 13.6455 267.258 16.3008 271.593 20.8266C272.113 21.3697 272.171 21.7922 271.824 22.0939L269.396 24.2061C268.992 24.5681 268.645 24.5681 268.24 24.1457C265.813 21.491 261.015 18.2325 255.119 18.2325C242.576 18.2325 235.639 28.8537 235.639 38.2676C235.639 47.8026 242.576 58.182 255.119 58.182C261.015 58.182 265.523 55.044 268.067 52.3888C268.529 51.906 268.876 51.7853 269.281 52.1474L271.708 54.2598ZM314.424 14.0692H311.362C310.784 14.0692 310.553 14.2502 310.553 14.8543V43.8807C310.553 53.9586 303.328 58.1828 296.795 58.1828C290.437 58.1828 283.327 53.9586 283.327 43.8807V14.8543C283.327 14.3112 283.096 14.0698 282.575 14.0698H279.57C278.992 14.0698 278.76 14.3112 278.76 14.8543V44.5444C278.818 54.2616 285.465 62.769 296.794 62.769C308.181 62.769 315.06 54.2613 315.118 44.5444V14.8543C315.118 14.2502 314.887 14.0692 314.424 14.0692H314.424ZM356.968 14.0692C357.488 14.0692 357.72 14.3106 357.72 14.8537V17.871C357.72 18.3538 357.489 18.6556 356.969 18.6556H342.056V61.5023C342.056 62.0454 341.824 62.3466 341.362 62.3466H339.05C338.009 62.3466 337.489 61.6827 337.489 60.6574V18.6545H322.576C322.056 18.6545 321.767 18.3528 321.767 17.87V14.913C321.767 14.3095 322.056 14.0681 322.576 14.0681H356.969L356.968 14.0692ZM387.14 40.1386V39.5357C387.14 39.2943 386.909 38.9926 386.678 38.8719L364.654 24.7507C364.25 24.5093 363.787 24.6904 363.787 25.2944V28.2508C363.787 28.5526 363.903 28.7336 364.076 28.8543L381.59 39.8369L364.192 50.7597C363.961 50.9408 363.787 51.1218 363.787 51.4839V54.3806C363.787 54.9237 364.192 55.2248 364.654 54.9237L386.678 40.8025C386.909 40.6818 387.14 40.3801 387.14 40.1387L387.14 40.1386Z" fill="url(#paint2_linear_100_75)"/>
<defs>
<linearGradient id="paint0_linear_100_75" x1="4.98737" y1="92.6765" x2="392.452" y2="92.6765" gradientUnits="userSpaceOnUse">
<stop stop-color="#8F5E25"/>
<stop offset="0.5" stop-color="#FBF4A1"/>
<stop offset="1" stop-color="#8F5E25"/>
</linearGradient>
<linearGradient id="paint1_linear_100_75" x1="13.0699" y1="14.2708" x2="198.841" y2="14.2708" gradientUnits="userSpaceOnUse">
<stop stop-color="#7F00FF"/>
<stop offset="1" stop-color="#E100FF"/>
</linearGradient>
<linearGradient id="paint2_linear_100_75" x1="206.507" y1="13.6455" x2="387.14" y2="13.6455" gradientUnits="userSpaceOnUse">
<stop stop-color="#8F5E25"/>
<stop offset="0.5" stop-color="#FBF4A1"/>
<stop offset="1" stop-color="#8F5E25"/>
</linearGradient>
</defs>
</svg>
